<svg width="2000" height="2000" viewBox="0 0 2000 2000" fill="none" xmlns="http://www.w3.org/2000/svg">
<path d="M2000 0H0V2000H2000V0Z" fill="white"/>
<path d="M909.087 121.208V181.814H848.61H848.485V166.961C848.485 141.684 875.615 121.208 909.087 121.208Z" fill="black"/>
<path d="M969.697 121.213H909.091V181.819H969.697V121.213Z" fill="black"/>
<path d="M1030.3 121.213H969.697V181.819H1030.3V121.213Z" fill="black"/>
<path d="M1090.9 181.814H1030.3V121.333V121.208H1045.15C1070.43 121.208 1090.9 148.342 1090.9 181.814Z" fill="black"/>
<path d="M1272.72 121.208V181.814H1212.25H1212.12V166.961C1212.12 141.684 1239.25 121.208 1272.72 121.208Z" fill="black"/>
<path d="M1333.33 181.814H1272.73V121.333V121.208H1287.58C1312.85 121.208 1333.33 148.342 1333.33 181.814Z" fill="black"/>
<path d="M666.662 181.818V242.424C666.662 242.424 627.048 223.459 606.056 240.039C606.056 240.039 605.013 181.818 666.662 181.818Z" fill="black"/>
<path d="M727.273 181.818H666.667V242.424H727.273V181.818Z" fill="black"/>
<path d="M727.273 242.424V181.818C727.273 181.818 766.883 200.779 787.879 184.199C787.879 184.199 788.918 242.424 727.273 242.424Z" fill="black"/>
<path d="M848.481 181.818H909.087C909.087 181.818 890.121 221.433 906.701 242.424C906.701 242.424 848.481 243.463 848.481 181.818Z" fill="black"/>
<path d="M969.697 181.814H1030.3V242.29V242.416L1015.45 242.42C990.178 242.42 969.697 215.286 969.697 181.814Z" fill="black"/>
<path d="M1090.91 181.818H1030.3V242.424H1090.91V181.818Z" fill="black"/>
<path d="M1151.52 181.818H1090.91V242.424H1151.52V181.818Z" fill="black"/>
<path d="M1212.12 181.818H1151.52V242.424H1212.12V181.818Z" fill="black"/>
<path d="M1272.73 181.818H1212.12V242.424H1272.73V181.818Z" fill="black"/>
<path d="M1272.73 242.424V181.818H1333.21H1333.33V196.667C1333.33 221.948 1306.2 242.424 1272.73 242.424Z" fill="black"/>
<path d="M818.182 242.424C834.918 242.424 848.485 255.991 848.485 272.727C848.485 289.464 834.918 303.03 818.182 303.03C801.446 303.03 787.879 289.464 787.879 272.727C787.879 255.991 801.446 242.424 818.182 242.424Z" fill="black"/>
<path d="M1090.91 242.424H1030.3V303.03H1090.91V242.424Z" fill="black"/>
<path d="M1090.91 303.03V242.424H1151.39H1151.52V257.273C1151.52 282.554 1124.38 303.03 1090.91 303.03Z" fill="black"/>
<path d="M696.97 303.03C713.706 303.03 727.273 316.598 727.273 333.333C727.273 350.07 713.706 363.636 696.97 363.636C680.234 363.636 666.667 350.07 666.667 333.333C666.667 316.598 680.234 303.03 696.97 303.03Z" fill="black"/>
<path d="M1030.3 303.026V363.632H969.823H969.697V348.779C969.697 323.502 996.827 303.026 1030.3 303.026Z" fill="black"/>
<path d="M1090.91 303.03H1030.3V363.636H1090.91V303.03Z" fill="black"/>
<path d="M1242.42 303.03C1259.16 303.03 1272.73 316.598 1272.73 333.333C1272.73 350.07 1259.16 363.636 1242.42 363.636C1225.69 363.636 1212.12 350.07 1212.12 333.333C1212.12 316.598 1225.69 303.03 1242.42 303.03Z" fill="black"/>
<path d="M636.364 363.636C653.1 363.636 666.667 377.204 666.667 393.939C666.667 410.676 653.1 424.242 636.364 424.242C619.628 424.242 606.061 410.676 606.061 393.939C606.061 377.204 619.628 363.636 636.364 363.636Z" fill="black"/>
<path d="M787.875 363.632V424.238H727.398H727.273V409.385C727.273 384.108 754.403 363.632 787.875 363.632Z" fill="black"/>
<path d="M848.485 363.636H787.879V424.242H848.485V363.636Z" fill="black"/>
<path d="M909.091 363.636H848.485V424.242H909.091V363.636Z" fill="black"/>
<path d="M969.697 363.636H909.091V424.242H969.697V363.636Z" fill="black"/>
<path d="M1030.3 363.636H969.697V424.242H1030.3V363.636Z" fill="black"/>
<path d="M1090.91 363.636H1030.3V424.242H1090.91V363.636Z" fill="black"/>
<path d="M1333.33 424.242H1272.73C1272.73 424.242 1291.69 384.632 1275.11 363.636C1275.11 363.636 1333.33 362.597 1333.33 424.242Z" fill="black"/>
<path d="M727.268 424.242V484.849C727.268 484.849 687.654 465.883 666.662 482.463C666.662 482.463 665.619 424.242 727.268 424.242Z" fill="black"/>
<path d="M787.879 424.242H727.273V484.849H787.879V424.242Z" fill="black"/>
<path d="M848.485 424.242H787.879V484.849H848.485V424.242Z" fill="black"/>
<path d="M909.091 424.242H848.485V484.849H909.091V424.242Z" fill="black"/>
<path d="M969.697 424.242H909.091V484.849H969.697V424.242Z" fill="black"/>
<path d="M1030.3 424.242H969.697V484.849H1030.3V424.242Z" fill="black"/>
<path d="M1030.3 484.849V424.242H1090.78H1090.91V439.091C1090.91 464.372 1063.77 484.849 1030.3 484.849Z" fill="black"/>
<path d="M1181.82 424.242C1198.55 424.242 1212.12 437.81 1212.12 454.545C1212.12 471.282 1198.55 484.849 1181.82 484.849C1165.08 484.849 1151.52 471.282 1151.52 454.545C1151.52 437.81 1165.08 424.242 1181.82 424.242Z" fill="black"/>
<path d="M1272.73 424.238H1333.33V484.714V484.84L1318.48 484.844C1293.21 484.844 1272.73 457.71 1272.73 424.238Z" fill="black"/>
<path d="M1393.94 484.844H1333.33V424.364V424.238H1348.18C1373.46 424.238 1393.94 451.372 1393.94 484.844Z" fill="black"/>
<path d="M636.364 484.849C653.1 484.849 666.667 498.416 666.667 515.152C666.667 531.888 653.1 545.455 636.364 545.455C619.628 545.455 606.061 531.888 606.061 515.152C606.061 498.416 619.628 484.849 636.364 484.849Z" fill="black"/>
<path d="M787.879 484.849H727.273V545.455H787.879V484.849Z" fill="black"/>
<path d="M848.481 484.849H909.087C909.087 484.849 890.121 524.463 906.701 545.455C906.701 545.455 848.481 546.493 848.481 484.849Z" fill="black"/>
<path d="M1030.3 484.849H969.697V545.455H1030.3V484.849Z" fill="black"/>
<path d="M1151.52 545.455H1090.91C1090.91 545.455 1109.87 505.844 1093.29 484.848C1093.29 484.848 1151.52 483.809 1151.52 545.455Z" fill="black"/>
<path d="M1242.42 484.849C1259.16 484.849 1272.73 498.416 1272.73 515.152C1272.73 531.888 1259.16 545.455 1242.42 545.455C1225.69 545.455 1212.12 531.888 1212.12 515.152C1212.12 498.416 1225.69 484.849 1242.42 484.849Z" fill="black"/>
<path d="M1393.94 484.849H1333.33V545.455H1393.94V484.849Z" fill="black"/>
<path d="M787.879 545.455H727.273V606.061H787.879V545.455Z" fill="black"/>
<path d="M787.879 606.061V545.455C787.879 545.455 827.489 564.416 848.485 547.836C848.485 547.836 849.524 606.061 787.879 606.061Z" fill="black"/>
<path d="M969.693 545.45V606.056H909.216H909.091V591.203C909.091 565.926 936.221 545.45 969.693 545.45Z" fill="black"/>
<path d="M1030.3 545.455H969.697V606.061H1030.3V545.455Z" fill="black"/>
<path d="M1151.52 545.455H1090.91V606.061H1151.52V545.455Z" fill="black"/>
<path d="M1212.12 606.056H1151.52V545.576V545.45H1166.36C1191.64 545.45 1212.12 572.584 1212.12 606.056Z" fill="black"/>
<path d="M1393.94 545.455H1333.33V606.061H1393.94V545.455Z" fill="black"/>
<path d="M151.516 606.061C168.252 606.061 181.819 619.628 181.819 636.364C181.819 653.1 168.252 666.667 151.516 666.667C134.78 666.667 121.213 653.1 121.213 636.364C121.213 619.628 134.78 606.061 151.516 606.061Z" fill="black"/>
<path d="M303.03 666.667H242.424C242.424 666.667 261.385 627.056 244.805 606.061C244.805 606.061 303.03 605.022 303.03 666.667Z" fill="black"/>
<path d="M393.939 606.061C410.676 606.061 424.242 619.628 424.242 636.364C424.242 653.1 410.676 666.667 393.939 666.667C377.204 666.667 363.636 653.1 363.636 636.364C363.636 619.628 377.204 606.061 393.939 606.061Z" fill="black"/>
<path d="M515.152 606.061C531.888 606.061 545.455 619.628 545.455 636.364C545.455 653.1 531.888 666.667 515.152 666.667C498.416 666.667 484.849 653.1 484.849 636.364C484.849 619.628 498.416 606.061 515.152 606.061Z" fill="black"/>
<path d="M727.268 606.061V666.667C727.268 666.667 687.654 647.701 666.662 664.281C666.662 664.281 665.619 606.061 727.268 606.061Z" fill="black"/>
<path d="M727.273 666.667V606.061H787.753H787.879V620.909C787.879 646.19 760.745 666.667 727.273 666.667Z" fill="black"/>
<path d="M909.091 606.056H969.697V666.532V666.658L954.844 666.662C929.571 666.662 909.091 639.528 909.091 606.056Z" fill="black"/>
<path d="M1030.3 606.061H969.697V666.667H1030.3V606.061Z" fill="black"/>
<path d="M1090.91 606.061H1030.3V666.667H1090.91V606.061Z" fill="black"/>
<path d="M1151.52 606.061H1090.91V666.667H1151.52V606.061Z" fill="black"/>
<path d="M1151.52 666.667V606.061H1212H1212.12V620.909C1212.12 646.19 1184.99 666.667 1151.52 666.667Z" fill="black"/>
<path d="M1333.33 606.061V666.667C1333.33 666.667 1293.71 647.701 1272.72 664.281C1272.72 664.281 1271.68 606.061 1333.33 606.061Z" fill="black"/>
<path d="M1393.94 606.061H1333.33V666.667H1393.94V606.061Z" fill="black"/>
<path d="M1606.06 606.061C1622.8 606.061 1636.36 619.628 1636.36 636.364C1636.36 653.1 1622.8 666.667 1606.06 666.667C1589.32 666.667 1575.76 653.1 1575.76 636.364C1575.76 619.628 1589.32 606.061 1606.06 606.061Z" fill="black"/>
<path d="M1787.88 606.061C1804.62 606.061 1818.18 619.628 1818.18 636.364C1818.18 653.1 1804.62 666.667 1787.88 666.667C1771.14 666.667 1757.58 653.1 1757.58 636.364C1757.58 619.628 1771.14 606.061 1787.88 606.061Z" fill="black"/>
<path d="M303.03 666.667H242.424V727.273H303.03V666.667Z" fill="black"/>
<path d="M303.03 727.273V666.667C303.03 666.667 342.641 685.628 363.636 669.048C363.636 669.048 364.675 727.273 303.03 727.273Z" fill="black"/>
<path d="M575.758 666.667C592.494 666.667 606.061 680.234 606.061 696.97C606.061 713.706 592.494 727.273 575.758 727.273C559.022 727.273 545.455 713.706 545.455 696.97C545.455 680.234 559.022 666.667 575.758 666.667Z" fill="black"/>
<path d="M1393.94 666.667H1333.33V727.273H1393.94V666.667Z" fill="black"/>
<path d="M1515.15 727.273H1454.55C1454.55 727.273 1473.51 687.662 1456.93 666.667C1456.93 666.667 1515.15 665.628 1515.15 727.273Z" fill="black"/>
<path d="M1666.67 666.667C1683.4 666.667 1696.97 680.234 1696.97 696.97C1696.97 713.706 1683.4 727.273 1666.67 727.273C1649.93 727.273 1636.36 713.706 1636.36 696.97C1636.36 680.234 1649.93 666.667 1666.67 666.667Z" fill="black"/>
<path d="M1878.79 727.273H1818.18C1818.18 727.273 1837.14 687.662 1820.56 666.667C1820.56 666.667 1878.79 665.628 1878.79 727.273Z" fill="black"/>
<path d="M242.42 727.273V787.879C242.42 787.879 202.805 768.913 181.814 785.493C181.814 785.493 180.771 727.273 242.42 727.273Z" fill="black"/>
<path d="M242.424 787.879V727.273H302.905H303.03V742.121C303.03 767.403 275.896 787.879 242.424 787.879Z" fill="black"/>
<path d="M515.152 727.273C531.888 727.273 545.455 740.84 545.455 757.576C545.455 774.312 531.888 787.879 515.152 787.879C498.416 787.879 484.849 774.312 484.849 757.576C484.849 740.84 498.416 727.273 515.152 727.273Z" fill="black"/>
<path d="M666.662 727.273V787.879C666.662 787.879 627.048 768.913 606.056 785.493C606.056 785.493 605.013 727.273 666.662 727.273Z" fill="black"/>
<path d="M727.273 727.273H666.667V787.879H727.273V727.273Z" fill="black"/>
<path d="M787.879 727.273H727.273V787.879H787.879V727.273Z" fill="black"/>
<path d="M787.879 787.879V727.273C787.879 727.273 827.489 746.234 848.485 729.654C848.485 729.654 849.524 787.879 787.879 787.879Z" fill="black"/>
<path d="M969.697 787.879H909.091C909.091 787.879 928.052 748.268 911.472 727.273C911.472 727.273 969.697 726.234 969.697 787.879Z" fill="black"/>
<path d="M1333.33 727.268H1393.94V787.745V787.87L1379.09 787.874C1353.81 787.874 1333.33 760.74 1333.33 727.268Z" fill="black"/>
<path d="M1454.55 727.273H1393.94V787.879H1454.55V727.273Z" fill="black"/>
<path d="M1515.15 727.273H1454.55V787.879H1515.15V727.273Z" fill="black"/>
<path d="M1757.57 727.273V787.879C1757.57 787.879 1717.96 768.913 1696.97 785.493C1696.97 785.493 1695.92 727.273 1757.57 727.273Z" fill="black"/>
<path d="M1818.18 727.273H1757.58V787.879H1818.18V727.273Z" fill="black"/>
<path d="M1818.18 787.879V727.273H1878.66H1878.79V742.121C1878.79 767.403 1851.65 787.879 1818.18 787.879Z" fill="black"/>
<path d="M151.516 787.879C168.252 787.879 181.819 801.446 181.819 818.182C181.819 834.918 168.252 848.485 151.516 848.485C134.78 848.485 121.213 834.918 121.213 818.182C121.213 801.446 134.78 787.879 151.516 787.879Z" fill="black"/>
<path d="M424.242 848.485H363.636C363.636 848.485 382.597 808.874 366.017 787.879C366.017 787.879 424.242 786.84 424.242 848.485Z" fill="black"/>
<path d="M575.758 787.879C592.494 787.879 606.061 801.446 606.061 818.182C606.061 834.918 592.494 848.485 575.758 848.485C559.022 848.485 545.455 834.918 545.455 818.182C545.455 801.446 559.022 787.879 575.758 787.879Z" fill="black"/>
<path d="M727.268 787.879H787.875C787.875 787.879 768.909 827.493 785.489 848.485C785.489 848.485 727.268 849.524 727.268 787.879Z" fill="black"/>
<path d="M909.087 787.874V848.481H848.61H848.485V833.628C848.485 808.351 875.615 787.874 909.087 787.874Z" fill="black"/>
<path d="M969.697 787.879H909.091V848.485H969.697V787.879Z" fill="black"/>
<path d="M1030.3 787.879H969.697V848.485H1030.3V787.879Z" fill="black"/>
<path d="M1090.91 787.879H1030.3V848.485H1090.91V787.879Z" fill="black"/>
<path d="M1151.52 787.879H1090.91V848.485H1151.52V787.879Z" fill="black"/>
<path d="M1212.12 848.481H1151.52V788V787.874H1166.36C1191.64 787.874 1212.12 815.009 1212.12 848.481Z" fill="black"/>
<path d="M1515.15 787.879H1454.55V848.485H1515.15V787.879Z" fill="black"/>
<path d="M1606.06 787.879C1622.8 787.879 1636.36 801.446 1636.36 818.182C1636.36 834.918 1622.8 848.485 1606.06 848.485C1589.32 848.485 1575.76 834.918 1575.76 818.182C1575.76 801.446 1589.32 787.879 1606.06 787.879Z" fill="black"/>
<path d="M1818.18 787.879H1757.58V848.485H1818.18V787.879Z" fill="black"/>
<path d="M303.026 848.481V909.087H242.55H242.424V894.234C242.424 868.957 269.554 848.481 303.026 848.481Z" fill="black"/>
<path d="M363.636 848.485H303.03V909.091H363.636V848.485Z" fill="black"/>
<path d="M424.242 848.485H363.636V909.091H424.242V848.485Z" fill="black"/>
<path d="M484.849 848.485H424.242V909.091H484.849V848.485Z" fill="black"/>
<path d="M484.849 909.091V848.485C484.849 848.485 524.459 867.446 545.455 850.866C545.455 850.866 546.494 909.091 484.849 909.091Z" fill="black"/>
<path d="M909.091 848.485H848.485V909.091H909.091V848.485Z" fill="black"/>
<path d="M969.693 848.485H1030.3C1030.3 848.485 1011.33 888.1 1027.91 909.091C1027.91 909.091 969.693 910.13 969.693 848.485Z" fill="black"/>
<path d="M1151.52 848.485H1090.91V909.091H1151.52V848.485Z" fill="black"/>
<path d="M1212.12 848.485H1151.52V909.091H1212.12V848.485Z" fill="black"/>
<path d="M1454.54 848.481V909.087H1394.06H1393.94V894.234C1393.94 868.957 1421.07 848.481 1454.54 848.481Z" fill="black"/>
<path d="M1515.15 848.485H1454.55V909.091H1515.15V848.485Z" fill="black"/>
<path d="M1696.97 909.091H1636.36C1636.36 909.091 1655.32 869.481 1638.74 848.485C1638.74 848.485 1696.97 847.446 1696.97 909.091Z" fill="black"/>
<path d="M1757.58 848.481H1818.18V908.957V909.082L1803.33 909.087C1778.06 909.087 1757.58 881.952 1757.58 848.481Z" fill="black"/>
<path d="M1878.78 909.087H1818.18V848.606V848.481H1833.03C1858.31 848.481 1878.78 875.615 1878.78 909.087Z" fill="black"/>
<path d="M181.819 969.697H121.213C121.213 969.697 140.174 930.087 123.594 909.091C123.594 909.091 181.819 908.052 181.819 969.697Z" fill="black"/>
<path d="M242.424 909.087H303.03V969.563V969.688L288.177 969.693C262.905 969.693 242.424 942.559 242.424 909.087Z" fill="black"/>
<path d="M363.636 909.091H303.03V969.697H363.636V909.091Z" fill="black"/>
<path d="M424.242 909.091H363.636V969.697H424.242V909.091Z" fill="black"/>
<path d="M666.667 969.697H606.061C606.061 969.697 625.022 930.087 608.442 909.091C608.442 909.091 666.667 908.052 666.667 969.697Z" fill="black"/>
<path d="M909.091 909.091H848.485V969.697H909.091V909.091Z" fill="black"/>
<path d="M1090.91 909.087H1151.52V969.563V969.688L1136.66 969.693C1111.39 969.693 1090.91 942.559 1090.91 909.087Z" fill="black"/>
<path d="M1151.52 969.697V909.091H1212H1212.12V923.939C1212.12 949.221 1184.99 969.697 1151.52 969.697Z" fill="black"/>
<path d="M1393.94 909.091V969.697C1393.94 969.697 1354.32 950.732 1333.33 967.312C1333.33 967.312 1332.29 909.091 1393.94 909.091Z" fill="black"/>
<path d="M1454.55 909.091H1393.94V969.697H1454.55V909.091Z" fill="black"/>
<path d="M1515.15 909.091H1454.55V969.697H1515.15V909.091Z" fill="black"/>
<path d="M1575.75 969.693H1515.15V909.212V909.087H1530C1555.28 909.087 1575.75 936.221 1575.75 969.693Z" fill="black"/>
<path d="M1696.97 909.091H1636.36V969.697H1696.97V909.091Z" fill="black"/>
<path d="M1878.79 909.091H1818.18V969.697H1878.79V909.091Z" fill="black"/>
<path d="M121.208 969.697H181.814C181.814 969.697 162.849 1009.31 179.429 1030.3C179.429 1030.3 121.208 1031.34 121.208 969.697Z" fill="black"/>
<path d="M424.242 969.697H363.636V1030.3H424.242V969.697Z" fill="black"/>
<path d="M484.849 969.697H424.242V1030.3H484.849V969.697Z" fill="black"/>
<path d="M545.455 969.697H484.849V1030.3H545.455V969.697Z" fill="black"/>
<path d="M606.061 969.697H545.455V1030.3H606.061V969.697Z" fill="black"/>
<path d="M666.667 969.697H606.061V1030.3H666.667V969.697Z" fill="black"/>
<path d="M666.667 1030.3V969.697C666.667 969.697 706.277 988.658 727.273 972.078C727.273 972.078 728.312 1030.3 666.667 1030.3Z" fill="black"/>
<path d="M848.481 969.693V1030.3H788.004H787.879V1015.45C787.879 990.169 815.009 969.693 848.481 969.693Z" fill="black"/>
<path d="M909.091 969.697H848.485V1030.3H909.091V969.697Z" fill="black"/>
<path d="M909.091 1030.3V969.697C909.091 969.697 948.701 988.658 969.697 972.078C969.697 972.078 970.736 1030.3 909.091 1030.3Z" fill="black"/>
<path d="M1272.73 1030.3H1212.12C1212.12 1030.3 1231.08 990.693 1214.5 969.697C1214.5 969.697 1272.73 968.658 1272.73 1030.3Z" fill="black"/>
<path d="M1515.15 969.697H1575.75C1575.75 969.697 1556.79 1009.31 1573.37 1030.3C1573.37 1030.3 1515.15 1031.34 1515.15 969.697Z" fill="black"/>
<path d="M1696.97 969.697H1636.36V1030.3H1696.97V969.697Z" fill="black"/>
<path d="M1818.18 969.693V1030.3H1757.7H1757.58V1015.45C1757.58 990.169 1784.71 969.693 1818.18 969.693Z" fill="black"/>
<path d="M1818.18 1030.3V969.697H1878.66H1878.79V984.545C1878.79 1009.83 1851.65 1030.3 1818.18 1030.3Z" fill="black"/>
<path d="M242.42 1030.3V1090.9H181.944H181.818V1076.05C181.818 1050.77 208.948 1030.3 242.42 1030.3Z" fill="black"/>
<path d="M303.03 1030.3H242.424V1090.91H303.03V1030.3Z" fill="black"/>
<path d="M363.636 1030.3H303.03V1090.91H363.636V1030.3Z" fill="black"/>
<path d="M424.242 1030.3H363.636V1090.91H424.242V1030.3Z" fill="black"/>
<path d="M424.242 1090.91V1030.3H484.723H484.849V1045.15C484.849 1070.43 457.714 1090.91 424.242 1090.91Z" fill="black"/>
<path d="M848.485 1030.3H787.879V1090.91H848.485V1030.3Z" fill="black"/>
<path d="M848.485 1090.91V1030.3H908.965H909.091V1045.15C909.091 1070.43 881.957 1090.91 848.485 1090.91Z" fill="black"/>
<path d="M1090.9 1030.3V1090.9H1030.43H1030.3V1076.05C1030.3 1050.77 1057.43 1030.3 1090.9 1030.3Z" fill="black"/>
<path d="M1151.52 1030.3H1090.91V1090.91H1151.52V1030.3Z" fill="black"/>
<path d="M1212.12 1030.3H1151.52V1090.91H1212.12V1030.3Z" fill="black"/>
<path d="M1272.73 1030.3H1212.12V1090.91H1272.73V1030.3Z" fill="black"/>
<path d="M1272.73 1090.91V1030.3C1272.73 1030.3 1312.34 1049.26 1333.33 1032.68C1333.33 1032.68 1334.37 1090.91 1272.73 1090.91Z" fill="black"/>
<path d="M1454.55 1090.91H1393.94C1393.94 1090.91 1412.9 1051.3 1396.32 1030.3C1396.32 1030.3 1454.55 1029.26 1454.55 1090.91Z" fill="black"/>
<path d="M1696.97 1030.3H1636.36V1090.91H1696.97V1030.3Z" fill="black"/>
<path d="M1818.18 1030.3H1757.58V1090.91H1818.18V1030.3Z" fill="black"/>
<path d="M181.814 1090.91V1151.52C181.814 1151.52 142.199 1132.55 121.208 1149.13C121.208 1149.13 120.164 1090.91 181.814 1090.91Z" fill="black"/>
<path d="M242.424 1090.91H181.818V1151.52H242.424V1090.91Z" fill="black"/>
<path d="M303.03 1090.91H242.424V1151.52H303.03V1090.91Z" fill="black"/>
<path d="M363.632 1090.91H424.238C424.238 1090.91 405.273 1130.52 421.853 1151.52C421.853 1151.52 363.632 1152.55 363.632 1090.91Z" fill="black"/>
<path d="M515.152 1090.91C531.888 1090.91 545.455 1104.48 545.455 1121.21C545.455 1137.95 531.888 1151.52 515.152 1151.52C498.416 1151.52 484.849 1137.95 484.849 1121.21C484.849 1104.48 498.416 1090.91 515.152 1090.91Z" fill="black"/>
<path d="M787.874 1090.91V1151.52C787.874 1151.52 748.26 1132.55 727.268 1149.13C727.268 1149.13 726.225 1090.91 787.874 1090.91Z" fill="black"/>
<path d="M787.879 1151.52V1090.91H848.359H848.485V1105.76C848.485 1131.04 821.351 1151.52 787.879 1151.52Z" fill="black"/>
<path d="M1030.3 1090.9H1090.91V1151.38V1151.51L1076.06 1151.51C1050.78 1151.51 1030.3 1124.38 1030.3 1090.9Z" fill="black"/>
<path d="M1151.52 1090.91H1090.91V1151.52H1151.52V1090.91Z" fill="black"/>
<path d="M1151.52 1151.52V1090.91H1212H1212.12V1105.76C1212.12 1131.04 1184.99 1151.52 1151.52 1151.52Z" fill="black"/>
<path d="M1393.94 1090.9V1151.51H1333.46H1333.33V1136.66C1333.33 1111.38 1360.46 1090.9 1393.94 1090.9Z" fill="black"/>
<path d="M1454.55 1090.91H1393.94V1151.52H1454.55V1090.91Z" fill="black"/>
<path d="M1515.15 1090.91H1454.55V1151.52H1515.15V1090.91Z" fill="black"/>
<path d="M1515.15 1151.52V1090.91C1515.15 1090.91 1554.76 1109.87 1575.76 1093.29C1575.76 1093.29 1576.8 1151.52 1515.15 1151.52Z" fill="black"/>
<path d="M1696.97 1090.91H1636.36V1151.52H1696.97V1090.91Z" fill="black"/>
<path d="M1757.58 1090.9H1818.18V1151.38V1151.51L1803.33 1151.51C1778.06 1151.51 1757.58 1124.38 1757.58 1090.9Z" fill="black"/>
<path d="M1878.78 1151.51H1818.18V1091.03V1090.9H1833.03C1858.31 1090.9 1878.78 1118.04 1878.78 1151.51Z" fill="black"/>
<path d="M181.818 1151.51H242.424V1211.99V1212.11L227.571 1212.12C202.299 1212.12 181.818 1184.98 181.818 1151.51Z" fill="black"/>
<path d="M303.03 1151.52H242.424V1212.12H303.03V1151.52Z" fill="black"/>
<path d="M454.545 1151.52C471.282 1151.52 484.849 1165.08 484.849 1181.82C484.849 1198.55 471.282 1212.12 454.545 1212.12C437.81 1212.12 424.242 1198.55 424.242 1181.82C424.242 1165.08 437.81 1151.52 454.545 1151.52Z" fill="black"/>
<path d="M606.056 1151.51V1212.12H545.58H545.455V1197.26C545.455 1171.99 572.584 1151.51 606.056 1151.51Z" fill="black"/>
<path d="M666.667 1151.52H606.061V1212.12H666.667V1151.52Z" fill="black"/>
<path d="M727.268 1212.12H666.667V1151.64V1151.51H681.515C706.792 1151.51 727.268 1178.65 727.268 1212.12Z" fill="black"/>
<path d="M909.087 1151.51V1212.12H848.61H848.485V1197.26C848.485 1171.99 875.615 1151.51 909.087 1151.51Z" fill="black"/>
<path d="M909.091 1212.12V1151.52C909.091 1151.52 948.701 1170.48 969.697 1153.9C969.697 1153.9 970.736 1212.12 909.091 1212.12Z" fill="black"/>
<path d="M1090.9 1151.52H1151.51C1151.51 1151.52 1132.55 1191.13 1149.13 1212.12C1149.13 1212.12 1090.9 1213.16 1090.9 1151.52Z" fill="black"/>
<path d="M1272.73 1212.12H1212.12C1212.12 1212.12 1231.08 1172.51 1214.5 1151.52C1214.5 1151.52 1272.73 1150.48 1272.73 1212.12Z" fill="black"/>
<path d="M1333.33 1151.51H1393.94V1211.99V1212.11L1379.09 1212.12C1353.81 1212.12 1333.33 1184.98 1333.33 1151.51Z" fill="black"/>
<path d="M1454.55 1151.52H1393.94V1212.12H1454.55V1151.52Z" fill="black"/>
<path d="M1515.15 1151.52H1454.55V1212.12H1515.15V1151.52Z" fill="black"/>
<path d="M1636.36 1151.51H1696.97V1211.99V1212.11L1682.12 1212.12C1656.84 1212.12 1636.36 1184.98 1636.36 1151.51Z" fill="black"/>
<path d="M1696.97 1212.12V1151.52C1696.97 1151.52 1736.58 1170.48 1757.58 1153.9C1757.58 1153.9 1758.61 1212.12 1696.97 1212.12Z" fill="black"/>
<path d="M1878.79 1151.52H1818.18V1212.12H1878.79V1151.52Z" fill="black"/>
<path d="M151.516 1212.12C168.252 1212.12 181.819 1225.69 181.819 1242.42C181.819 1259.16 168.252 1272.73 151.516 1272.73C134.78 1272.73 121.213 1259.16 121.213 1242.42C121.213 1225.69 134.78 1212.12 151.516 1212.12Z" fill="black"/>
<path d="M242.42 1212.12H303.026C303.026 1212.12 284.061 1251.74 300.641 1272.73C300.641 1272.73 242.42 1273.77 242.42 1212.12Z" fill="black"/>
<path d="M424.242 1272.73H363.636C363.636 1272.73 382.597 1233.12 366.017 1212.12C366.017 1212.12 424.242 1211.08 424.242 1272.73Z" fill="black"/>
<path d="M545.45 1212.12V1272.73C545.45 1272.73 505.835 1253.76 484.844 1270.34C484.844 1270.34 483.801 1212.12 545.45 1212.12Z" fill="black"/>
<path d="M545.455 1272.73V1212.12H605.935H606.061V1226.97C606.061 1252.25 578.926 1272.73 545.455 1272.73Z" fill="black"/>
<path d="M727.273 1212.12H666.667V1272.73H727.273V1212.12Z" fill="black"/>
<path d="M787.879 1212.12H727.273V1272.73H787.879V1212.12Z" fill="black"/>
<path d="M848.485 1212.12H787.879V1272.73H848.485V1212.12Z" fill="black"/>
<path d="M909.091 1212.12H848.485V1272.73H909.091V1212.12Z" fill="black"/>
<path d="M1030.3 1272.73H969.697C969.697 1272.73 988.658 1233.12 972.078 1212.12C972.078 1212.12 1030.3 1211.08 1030.3 1272.73Z" fill="black"/>
<path d="M1272.73 1212.12H1212.12V1272.73H1272.73V1212.12Z" fill="black"/>
<path d="M1454.55 1212.12H1515.15V1272.59V1272.72L1500.3 1272.72C1475.03 1272.72 1454.55 1245.59 1454.55 1212.12Z" fill="black"/>
<path d="M1515.15 1272.73V1212.12C1515.15 1212.12 1554.76 1231.08 1575.76 1214.5C1575.76 1214.5 1576.8 1272.73 1515.15 1272.73Z" fill="black"/>
<path d="M1818.18 1212.12V1272.72H1757.7H1757.58V1257.87C1757.58 1232.59 1784.71 1212.12 1818.18 1212.12Z" fill="black"/>
<path d="M1818.18 1272.73V1212.12H1878.66H1878.79V1226.97C1878.79 1252.25 1851.65 1272.73 1818.18 1272.73Z" fill="black"/>
<path d="M212.121 1272.73C228.858 1272.73 242.424 1286.29 242.424 1303.03C242.424 1319.77 228.858 1333.33 212.121 1333.33C195.385 1333.33 181.818 1319.77 181.818 1303.03C181.818 1286.29 195.385 1272.73 212.121 1272.73Z" fill="black"/>
<path d="M424.242 1272.73H363.636V1333.33H424.242V1272.73Z" fill="black"/>
<path d="M666.662 1272.73V1333.33C666.662 1333.33 627.048 1314.37 606.056 1330.95C606.056 1330.95 605.013 1272.73 666.662 1272.73Z" fill="black"/>
<path d="M666.667 1333.33V1272.73H727.147H727.273V1287.58C727.273 1312.86 700.139 1333.33 666.667 1333.33Z" fill="black"/>
<path d="M787.879 1272.72H848.485V1333.2V1333.32L833.632 1333.33C808.359 1333.33 787.879 1306.19 787.879 1272.72Z" fill="black"/>
<path d="M909.091 1272.73H848.485V1333.33H909.091V1272.73Z" fill="black"/>
<path d="M969.697 1272.73H909.091V1333.33H969.697V1272.73Z" fill="black"/>
<path d="M1030.3 1272.73H969.697V1333.33H1030.3V1272.73Z" fill="black"/>
<path d="M1030.3 1333.33V1272.73C1030.3 1272.73 1069.91 1291.69 1090.91 1275.11C1090.91 1275.11 1091.95 1333.33 1030.3 1333.33Z" fill="black"/>
<path d="M1212.12 1272.72V1333.33H1151.64H1151.52V1318.48C1151.52 1293.2 1178.65 1272.72 1212.12 1272.72Z" fill="black"/>
<path d="M1212.12 1333.33V1272.73H1272.6H1272.73V1287.58C1272.73 1312.86 1245.59 1333.33 1212.12 1333.33Z" fill="black"/>
<path d="M1666.67 1272.73C1683.4 1272.73 1696.97 1286.29 1696.97 1303.03C1696.97 1319.77 1683.4 1333.33 1666.67 1333.33C1649.93 1333.33 1636.36 1319.77 1636.36 1303.03C1636.36 1286.29 1649.93 1272.73 1666.67 1272.73Z" fill="black"/>
<path d="M1757.57 1272.73H1818.18C1818.18 1272.73 1799.21 1312.34 1815.79 1333.33C1815.79 1333.33 1757.57 1334.37 1757.57 1272.73Z" fill="black"/>
<path d="M151.516 1333.33C168.252 1333.33 181.819 1346.9 181.819 1363.64C181.819 1380.37 168.252 1393.94 151.516 1393.94C134.78 1393.94 121.213 1380.37 121.213 1363.64C121.213 1346.9 134.78 1333.33 151.516 1333.33Z" fill="black"/>
<path d="M363.632 1333.33H424.238C424.238 1333.33 405.273 1372.95 421.853 1393.94C421.853 1393.94 363.632 1394.98 363.632 1333.33Z" fill="black"/>
<path d="M545.45 1333.33V1393.94C545.45 1393.94 505.835 1374.97 484.844 1391.55C484.844 1391.55 483.801 1333.33 545.45 1333.33Z" fill="black"/>
<path d="M545.455 1393.94V1333.33C545.455 1333.33 585.065 1352.29 606.061 1335.71C606.061 1335.71 607.1 1393.94 545.455 1393.94Z" fill="black"/>
<path d="M909.091 1333.33H848.485V1393.94H909.091V1333.33Z" fill="black"/>
<path d="M1030.3 1333.33H969.697V1393.94H1030.3V1333.33Z" fill="black"/>
<path d="M1151.51 1333.33V1393.94H1091.03H1090.91V1379.08C1090.91 1353.81 1118.04 1333.33 1151.51 1333.33Z" fill="black"/>
<path d="M1151.52 1393.94V1333.33H1212H1212.12V1348.18C1212.12 1373.46 1184.99 1393.94 1151.52 1393.94Z" fill="black"/>
<path d="M1393.94 1333.33V1393.94H1333.46H1333.33V1379.08C1333.33 1353.81 1360.46 1333.33 1393.94 1333.33Z" fill="black"/>
<path d="M1454.55 1333.33H1393.94V1393.94H1454.55V1333.33Z" fill="black"/>
<path d="M1515.15 1333.33H1454.55V1393.94H1515.15V1333.33Z" fill="black"/>
<path d="M1575.76 1333.33H1515.15V1393.94H1575.76V1333.33Z" fill="black"/>
<path d="M1636.36 1393.94H1575.76V1333.45V1333.33H1590.61C1615.88 1333.33 1636.36 1360.46 1636.36 1393.94Z" fill="black"/>
<path d="M666.662 1393.94V1454.55C666.662 1454.55 627.048 1435.58 606.056 1452.16C606.056 1452.16 605.013 1393.94 666.662 1393.94Z" fill="black"/>
<path d="M727.268 1454.54H666.667V1394.06V1393.94H681.515C706.792 1393.94 727.268 1421.07 727.268 1454.54Z" fill="black"/>
<path d="M848.481 1393.94V1454.54H788.004H787.879V1439.69C787.879 1414.41 815.009 1393.94 848.481 1393.94Z" fill="black"/>
<path d="M848.485 1454.55V1393.94H908.965H909.091V1408.79C909.091 1434.07 881.957 1454.55 848.485 1454.55Z" fill="black"/>
<path d="M969.693 1393.94H1030.3C1030.3 1393.94 1011.33 1433.55 1027.91 1454.55C1027.91 1454.55 969.693 1455.58 969.693 1393.94Z" fill="black"/>
<path d="M1090.9 1393.94H1151.51C1151.51 1393.94 1132.55 1433.55 1149.13 1454.55C1149.13 1454.55 1090.9 1455.58 1090.9 1393.94Z" fill="black"/>
<path d="M1393.94 1393.94H1333.33V1454.55H1393.94V1393.94Z" fill="black"/>
<path d="M1636.36 1393.94H1575.76V1454.55H1636.36V1393.94Z" fill="black"/>
<path d="M1757.57 1393.94V1454.55C1757.57 1454.55 1717.96 1435.58 1696.97 1452.16C1696.97 1452.16 1695.92 1393.94 1757.57 1393.94Z" fill="black"/>
<path d="M1818.18 1393.94H1757.58V1454.55H1818.18V1393.94Z" fill="black"/>
<path d="M1878.78 1454.54H1818.18V1394.06V1393.94H1833.03C1858.31 1393.94 1878.78 1421.07 1878.78 1454.54Z" fill="black"/>
<path d="M727.273 1454.55H666.667V1515.15H727.273V1454.55Z" fill="black"/>
<path d="M848.485 1454.55H787.879V1515.15H848.485V1454.55Z" fill="black"/>
<path d="M939.394 1454.55C956.131 1454.55 969.697 1468.11 969.697 1484.85C969.697 1501.59 956.131 1515.15 939.394 1515.15C922.658 1515.15 909.091 1501.59 909.091 1484.85C909.091 1468.11 922.658 1454.55 939.394 1454.55Z" fill="black"/>
<path d="M1272.72 1454.54V1515.15H1212.25H1212.12V1500.29C1212.12 1475.02 1239.25 1454.54 1272.72 1454.54Z" fill="black"/>
<path d="M1333.33 1454.55H1272.73V1515.15H1333.33V1454.55Z" fill="black"/>
<path d="M1393.94 1454.55H1333.33V1515.15H1393.94V1454.55Z" fill="black"/>
<path d="M1484.85 1454.55C1501.59 1454.55 1515.15 1468.11 1515.15 1484.85C1515.15 1501.59 1501.59 1515.15 1484.85 1515.15C1468.11 1515.15 1454.55 1501.59 1454.55 1484.85C1454.55 1468.11 1468.11 1454.55 1484.85 1454.55Z" fill="black"/>
<path d="M1636.36 1454.55H1575.76V1515.15H1636.36V1454.55Z" fill="black"/>
<path d="M1696.97 1515.15H1636.36V1454.67V1454.54H1651.21C1676.49 1454.54 1696.97 1481.68 1696.97 1515.15Z" fill="black"/>
<path d="M1757.58 1454.54H1818.18V1515.02V1515.14L1803.33 1515.15C1778.06 1515.15 1757.58 1488.01 1757.58 1454.54Z" fill="black"/>
<path d="M1878.79 1454.55H1818.18V1515.15H1878.79V1454.55Z" fill="black"/>
<path d="M666.662 1515.15H727.268C727.268 1515.15 708.303 1554.77 724.883 1575.76C724.883 1575.76 666.662 1576.8 666.662 1515.15Z" fill="black"/>
<path d="M848.485 1515.15H787.879V1575.76H848.485V1515.15Z" fill="black"/>
<path d="M1151.51 1515.15V1575.75H1091.03H1090.91V1560.9C1090.91 1535.62 1118.04 1515.15 1151.51 1515.15Z" fill="black"/>
<path d="M1212.12 1515.15H1151.52V1575.76H1212.12V1515.15Z" fill="black"/>
<path d="M1212.12 1575.76V1515.15H1272.6H1272.73V1530C1272.73 1555.28 1245.59 1575.76 1212.12 1575.76Z" fill="black"/>
<path d="M1393.94 1515.15H1333.33V1575.76H1393.94V1515.15Z" fill="black"/>
<path d="M1636.36 1515.15H1575.76V1575.76H1636.36V1515.15Z" fill="black"/>
<path d="M1636.36 1575.76V1515.15H1696.84H1696.97V1530C1696.97 1555.28 1669.84 1575.76 1636.36 1575.76Z" fill="black"/>
<path d="M1878.79 1515.15H1818.18V1575.76H1878.79V1515.15Z" fill="black"/>
<path d="M636.364 1575.76C653.1 1575.76 666.667 1589.32 666.667 1606.06C666.667 1622.8 653.1 1636.36 636.364 1636.36C619.628 1636.36 606.061 1622.8 606.061 1606.06C606.061 1589.32 619.628 1575.76 636.364 1575.76Z" fill="black"/>
<path d="M848.485 1575.76H787.879V1636.36H848.485V1575.76Z" fill="black"/>
<path d="M1151.52 1575.76H1090.91V1636.36H1151.52V1575.76Z" fill="black"/>
<path d="M1151.52 1636.36V1575.76H1212H1212.12V1590.61C1212.12 1615.89 1184.99 1636.36 1151.52 1636.36Z" fill="black"/>
<path d="M1333.33 1575.75H1393.94V1636.23V1636.36L1379.09 1636.36C1353.81 1636.36 1333.33 1609.23 1333.33 1575.75Z" fill="black"/>
<path d="M1454.55 1575.76H1393.94V1636.36H1454.55V1575.76Z" fill="black"/>
<path d="M1515.15 1575.76H1454.55V1636.36H1515.15V1575.76Z" fill="black"/>
<path d="M1575.76 1575.76H1515.15V1636.36H1575.76V1575.76Z" fill="black"/>
<path d="M1636.36 1575.76H1575.76V1636.36H1636.36V1575.76Z" fill="black"/>
<path d="M1818.18 1575.75V1636.36H1757.7H1757.58V1621.51C1757.58 1596.23 1784.71 1575.75 1818.18 1575.75Z" fill="black"/>
<path d="M1878.79 1575.76H1818.18V1636.36H1878.79V1575.76Z" fill="black"/>
<path d="M787.879 1636.36H848.485V1696.84V1696.96L833.632 1696.97C808.359 1696.97 787.879 1669.83 787.879 1636.36Z" fill="black"/>
<path d="M848.485 1696.97V1636.36C848.485 1636.36 888.095 1655.32 909.091 1638.74C909.091 1638.74 910.13 1696.97 848.485 1696.97Z" fill="black"/>
<path d="M1090.9 1636.36H1151.51C1151.51 1636.36 1132.55 1675.98 1149.13 1696.97C1149.13 1696.97 1090.9 1698.01 1090.9 1636.36Z" fill="black"/>
<path d="M1636.36 1636.36H1575.76V1696.97H1636.36V1636.36Z" fill="black"/>
<path d="M1757.57 1636.36V1696.97C1757.57 1696.97 1717.96 1678 1696.97 1694.58C1696.97 1694.58 1695.92 1636.36 1757.57 1636.36Z" fill="black"/>
<path d="M1818.18 1636.36H1757.58V1696.97H1818.18V1636.36Z" fill="black"/>
<path d="M1878.79 1636.36H1818.18V1696.97H1878.79V1636.36Z" fill="black"/>
<path d="M666.662 1696.97V1757.58C666.662 1757.58 627.048 1738.61 606.056 1755.19C606.056 1755.19 605.013 1696.97 666.662 1696.97Z" fill="black"/>
<path d="M727.268 1757.57H666.667V1697.09V1696.97H681.515C706.792 1696.97 727.268 1724.1 727.268 1757.57Z" fill="black"/>
<path d="M1030.3 1757.58H969.697C969.697 1757.58 988.658 1717.97 972.078 1696.97C972.078 1696.97 1030.3 1695.93 1030.3 1757.58Z" fill="black"/>
<path d="M1212.12 1757.58H1151.52C1151.52 1757.58 1170.48 1717.97 1153.9 1696.97C1153.9 1696.97 1212.12 1695.93 1212.12 1757.58Z" fill="black"/>
<path d="M1424.24 1696.97C1440.98 1696.97 1454.55 1710.54 1454.55 1727.27C1454.55 1744.01 1440.98 1757.58 1424.24 1757.58C1407.51 1757.58 1393.94 1744.01 1393.94 1727.27C1393.94 1710.54 1407.51 1696.97 1424.24 1696.97Z" fill="black"/>
<path d="M1575.75 1696.97V1757.58C1575.75 1757.58 1536.14 1738.61 1515.15 1755.19C1515.15 1755.19 1514.1 1696.97 1575.75 1696.97Z" fill="black"/>
<path d="M1636.36 1696.97H1575.76V1757.58H1636.36V1696.97Z" fill="black"/>
<path d="M1636.36 1757.58V1696.97C1636.36 1696.97 1675.97 1715.93 1696.97 1699.35C1696.97 1699.35 1698.01 1757.58 1636.36 1757.58Z" fill="black"/>
<path d="M1818.18 1696.97H1878.78C1878.78 1696.97 1859.82 1736.58 1876.4 1757.58C1876.4 1757.58 1818.18 1758.61 1818.18 1696.97Z" fill="black"/>
<path d="M727.273 1757.58H666.667V1818.18H727.273V1757.58Z" fill="black"/>
<path d="M848.481 1757.57V1818.18H788.004H787.879V1803.32C787.879 1778.05 815.009 1757.57 848.481 1757.57Z" fill="black"/>
<path d="M848.485 1818.18V1757.58C848.485 1757.58 888.095 1776.54 909.091 1759.96C909.091 1759.96 910.13 1818.18 848.485 1818.18Z" fill="black"/>
<path d="M1030.3 1757.58H969.697V1818.18H1030.3V1757.58Z" fill="black"/>
<path d="M1151.51 1757.57V1818.18H1091.03H1090.91V1803.32C1090.91 1778.05 1118.04 1757.57 1151.51 1757.57Z" fill="black"/>
<path d="M1212.12 1757.58H1151.52V1818.18H1212.12V1757.58Z" fill="black"/>
<path d="M1333.33 1757.57V1818.18H1272.85H1272.73V1803.32C1272.73 1778.05 1299.86 1757.57 1333.33 1757.57Z" fill="black"/>
<path d="M1393.94 1818.18H1333.33V1757.7V1757.57H1348.18C1373.46 1757.57 1393.94 1784.71 1393.94 1818.18Z" fill="black"/>
<path d="M1636.36 1757.58H1575.76V1818.18H1636.36V1757.58Z" fill="black"/>
<path d="M1818.18 1818.18H1757.58C1757.58 1818.18 1776.54 1778.57 1759.96 1757.58C1759.96 1757.58 1818.18 1756.54 1818.18 1818.18Z" fill="black"/>
<path d="M666.662 1818.18V1878.79C666.662 1878.79 627.048 1859.82 606.056 1876.4C606.056 1876.4 605.013 1818.18 666.662 1818.18Z" fill="black"/>
<path d="M666.667 1878.79V1818.18H727.147H727.273V1833.03C727.273 1858.31 700.139 1878.79 666.667 1878.79Z" fill="black"/>
<path d="M787.875 1818.18H848.481C848.481 1818.18 829.515 1857.8 846.095 1878.79C846.095 1878.79 787.875 1879.83 787.875 1818.18Z" fill="black"/>
<path d="M969.693 1818.18V1878.79C969.693 1878.79 930.078 1859.82 909.087 1876.4C909.087 1876.4 908.043 1818.18 969.693 1818.18Z" fill="black"/>
<path d="M969.697 1878.79V1818.18H1030.18H1030.3V1833.03C1030.3 1858.31 1003.17 1878.79 969.697 1878.79Z" fill="black"/>
<path d="M1090.91 1818.18H1151.52V1878.65V1878.78L1136.66 1878.78C1111.39 1878.78 1090.91 1851.65 1090.91 1818.18Z" fill="black"/>
<path d="M1151.52 1878.79V1818.18H1212H1212.12V1833.03C1212.12 1858.31 1184.99 1878.79 1151.52 1878.79Z" fill="black"/>
<path d="M1272.73 1818.18H1333.33V1878.65V1878.78L1318.48 1878.78C1293.21 1878.78 1272.73 1851.65 1272.73 1818.18Z" fill="black"/>
<path d="M1333.33 1878.79V1818.18H1393.81H1393.94V1833.03C1393.94 1858.31 1366.81 1878.79 1333.33 1878.79Z" fill="black"/>
<path d="M1515.15 1818.18V1878.79C1515.15 1878.79 1475.53 1859.82 1454.54 1876.4C1454.54 1876.4 1453.5 1818.18 1515.15 1818.18Z" fill="black"/>
<path d="M1575.76 1818.18H1515.15V1878.79H1575.76V1818.18Z" fill="black"/>
<path d="M1636.36 1818.18H1575.76V1878.79H1636.36V1818.18Z" fill="black"/>
<path d="M1636.36 1878.79V1818.18C1636.36 1818.18 1675.97 1837.14 1696.97 1820.56C1696.97 1820.56 1698.01 1878.79 1636.36 1878.79Z" fill="black"/>
<path d="M1757.58 1818.18H1818.18V1878.65V1878.78L1803.33 1878.78C1778.06 1878.78 1757.58 1851.65 1757.58 1818.18Z" fill="black"/>
<path d="M1818.18 1878.79V1818.18C1818.18 1818.18 1857.79 1837.14 1878.79 1820.56C1878.79 1820.56 1879.83 1878.79 1818.18 1878.79Z" fill="black"/>
<path d="M402.273 545.455H264.522C185.528 545.455 121.298 480.461 121.298 400.618L121.213 121.212H402.273C481.225 121.212 545.455 186.206 545.455 266.049V400.618V545.455H402.273ZM481.819 266.049C481.819 221.274 446.136 184.849 402.273 184.849H184.866L184.934 400.597C184.934 445.393 220.638 481.818 264.522 481.818H481.819V266.049Z" fill="black"/>
<path d="M1735.61 121.213H1597.85C1518.86 121.213 1454.63 186.207 1454.63 266.049L1454.55 545.455H1735.61C1814.56 545.455 1878.79 480.461 1878.79 400.619V266.049V121.213H1735.61ZM1815.15 400.619C1815.15 445.393 1779.47 481.819 1735.61 481.819H1518.2L1518.27 266.07C1518.27 221.274 1553.97 184.849 1597.85 184.849H1815.15V400.619Z" fill="black"/>
<path d="M402.273 1454.55H264.522C185.528 1454.55 121.298 1519.54 121.298 1599.38L121.213 1878.79H402.273C481.225 1878.79 545.455 1813.79 545.455 1733.95V1599.38V1454.55H402.273ZM481.819 1733.95C481.819 1778.73 446.136 1815.15 402.273 1815.15H184.866L184.934 1599.4C184.934 1554.61 220.638 1518.18 264.522 1518.18H481.819V1733.95Z" fill="black"/>
<path d="M374.686 424.281H291.933C287.677 424.281 283.548 423.741 279.622 422.69C270.931 420.406 263.184 415.791 257.042 409.533C255.921 408.404 254.85 407.199 253.857 405.97C246.797 397.302 242.566 386.146 242.566 374.041L242.515 242.462H374.686C401.906 242.462 424.028 265.002 424.028 292.699V374.015V374.041L424.333 424.253C424.333 424.253 391.71 424.281 374.686 424.281Z" fill="black"/>
<path d="M1708.02 242.386H1625.27C1621.01 242.386 1616.88 242.926 1612.96 243.977C1604.26 246.261 1596.52 250.875 1590.38 257.133C1589.25 258.262 1588.18 259.468 1587.19 260.697C1580.13 269.364 1575.9 280.521 1575.9 292.626L1575.85 424.204H1708.02C1735.24 424.204 1757.36 401.664 1757.36 373.968V292.652V292.626L1757.67 242.413C1757.67 242.413 1725.04 242.386 1708.02 242.386Z" fill="black"/>
<path d="M374.686 1575.72H291.933C287.677 1575.72 283.548 1576.26 279.622 1577.31C270.931 1579.59 263.184 1584.21 257.042 1590.47C255.921 1591.6 254.85 1592.8 253.857 1594.03C246.797 1602.7 242.566 1613.85 242.566 1625.96L242.515 1757.54H374.686C401.906 1757.54 424.028 1735 424.028 1707.3V1625.98V1625.96L424.333 1575.75C424.333 1575.75 391.71 1575.72 374.686 1575.72Z" fill="black"/>
</svg>
